<svg xmlns="http://www.w3.org/2000/svg" xmlns:xlink="http://www.w3.org/1999/xlink" width="500" zoomAndPan="magnify" viewBox="0 0 375 374.999991" height="500" preserveAspectRatio="xMidYMid meet" version="1.2"><defs><clipPath id="f7d9136268"><path d="M 120 135 L 199 135 L 199 212 L 120 212 Z M 120 135 "/></clipPath><clipPath id="544a4c67d5"><path d="M 103.335938 163.445312 L 168.335938 118.984375 L 205.171875 172.839844 L 140.175781 217.300781 Z M 103.335938 163.445312 "/></clipPath><clipPath id="c43eee60a5"><path d="M 103.335938 163.445312 L 168.335938 118.984375 L 205.171875 172.839844 L 140.175781 217.300781 Z M 103.335938 163.445312 "/></clipPath><clipPath id="9ae4ee01ce"><path d="M 225.152344 142.027344 L 261.902344 142.027344 L 261.902344 217 L 225.152344 217 Z M 225.152344 142.027344 "/></clipPath><clipPath id="b4f51e2214"><path d="M 194 187.5 L 215 187.5 L 215 198 L 194 198 Z M 194 187.5 "/></clipPath><clipPath id="7e4c62000a"><path d="M 194 224 L 215 224 L 215 234.75 L 194 234.75 Z M 194 224 "/></clipPath><clipPath id="faa334984e"><path d="M 192.226562 197 L 217.726562 197 L 217.726562 225 L 192.226562 225 Z M 192.226562 197 "/></clipPath><clipPath id="bb3a9de15a"><path d="M 200.769531 225.28125 L 286 225.28125 L 286 304 L 200.769531 304 Z M 200.769531 225.28125 "/></clipPath></defs><g id="96a17f0d94"><path style=" stroke:none;fill-rule:nonzero;fill:#ffffff;fill-opacity:1;" d="M 157.257812 117.378906 C 160.777344 117.378906 163.628906 114.523438 163.628906 111.007812 L 163.628906 98.671875 C 163.628906 82.71875 176.628906 69.722656 192.632812 69.722656 C 208.636719 69.722656 221.636719 82.71875 221.636719 98.671875 L 221.636719 111.007812 C 221.636719 114.523438 224.488281 117.378906 228.007812 117.378906 C 231.523438 117.378906 234.378906 114.523438 234.378906 111.007812 L 234.378906 100.40625 C 234.378906 78.132812 217.660156 58.558594 195.386719 57.082031 C 171.171875 55.5 150.886719 74.765625 150.886719 98.671875 L 150.886719 111.007812 C 150.886719 114.523438 153.742188 117.378906 157.257812 117.378906 Z M 157.257812 117.378906 "/><path style=" stroke:none;fill-rule:nonzero;fill:#33b36b;fill-opacity:1;" d="M 291.261719 283.035156 L 277.246094 146.6875 C 276.121094 135.832031 267 127.625 256.089844 127.625 L 129.171875 127.625 C 118.265625 127.625 109.140625 135.882812 108.019531 146.6875 L 104.503906 180.632812 C 102.160156 203.417969 123.820312 221.207031 145.6875 214.53125 L 157.566406 210.910156 C 171.070312 206.78125 186.160156 213.613281 191.460938 228.597656 C 193.296875 233.796875 193.039062 239.503906 191.410156 244.804688 L 186.160156 261.933594 C 178.921875 285.582031 196.609375 309.488281 221.328125 309.488281 L 267.40625 309.488281 C 281.628906 309.4375 292.738281 297.152344 291.261719 283.035156 Z M 291.261719 283.035156 "/><path style=" stroke:none;fill-rule:nonzero;fill:#ffffff;fill-opacity:1;" d="M 162.050781 225.488281 L 93.390625 246.4375 C 83.402344 249.496094 82.6875 263.359375 92.320312 267.4375 L 108.683594 274.320312 C 117.347656 277.988281 124.28125 284.871094 127.949219 293.585938 L 134.832031 309.945312 C 138.910156 319.582031 152.773438 318.867188 155.832031 308.875 L 176.78125 240.21875 C 179.582031 231.195312 171.121094 222.734375 162.050781 225.488281 Z M 162.050781 225.488281 "/><g clip-rule="nonzero" clip-path="url(#f7d9136268)"><g clip-rule="nonzero" clip-path="url(#544a4c67d5)"><g clip-rule="nonzero" clip-path="url(#c43eee60a5)"><path style=" stroke:none;fill-rule:nonzero;fill:#ffffff;fill-opacity:1;" d="M 185.039062 150.234375 C 173.867188 134.25 151.851562 130.261719 135.671875 141.328125 C 119.492188 152.394531 115.285156 174.441406 126.128906 190.648438 C 125.414062 192.949219 125.332031 195.296875 126.679688 197.265625 L 129.429688 201.292969 L 130.5 202.851562 L 133.25 206.875 C 135.667969 210.40625 140.824219 210.015625 144.539062 209.28125 L 145.15625 210.183594 C 145.945312 211.332031 147.933594 211.421875 149.492188 210.351562 L 150.3125 209.789062 C 151.875 208.722656 152.570312 206.921875 151.726562 205.691406 L 134.707031 180.804688 C 133.921875 179.65625 131.933594 179.570312 130.371094 180.636719 L 129.550781 181.199219 C 129.058594 181.535156 128.621094 181.953125 128.378906 182.480469 C 122.925781 169.574219 127.101562 154.179688 139.09375 145.980469 C 151.082031 137.777344 166.945312 139.464844 176.996094 149.226562 C 176.472656 149.339844 175.871094 149.515625 175.375 149.851562 L 174.554688 150.414062 C 172.996094 151.480469 172.300781 153.28125 173.140625 154.515625 L 190.164062 179.398438 C 190.949219 180.546875 192.9375 180.636719 194.5 179.566406 L 195.320312 179.007812 C 196.878906 177.9375 197.574219 176.136719 196.734375 174.90625 L 196.058594 173.917969 C 198.089844 170.722656 200.324219 166.058594 197.910156 162.527344 L 195.15625 158.503906 L 194.089844 156.941406 L 191.335938 152.917969 C 189.742188 151.117188 187.445312 150.398438 185.039062 150.234375 Z M 185.039062 150.234375 "/></g></g></g><g clip-rule="nonzero" clip-path="url(#9ae4ee01ce)"><path style=" stroke:none;fill-rule:evenodd;fill:#ffffff;fill-opacity:1;" d="M 256.824219 216.667969 L 229.933594 216.667969 C 227.3125 216.667969 225.1875 214.539062 225.1875 211.921875 L 225.1875 147.058594 C 225.1875 144.4375 227.3125 142.3125 229.933594 142.3125 L 256.828125 142.3125 C 259.449219 142.3125 261.574219 144.4375 261.574219 147.058594 L 261.574219 211.921875 C 261.574219 214.539062 259.449219 216.667969 256.824219 216.667969 Z M 243.378906 215.082031 C 245.125 215.082031 246.542969 213.667969 246.542969 211.921875 C 246.542969 210.171875 245.125 208.753906 243.378906 208.753906 C 241.632812 208.753906 240.214844 210.171875 240.214844 211.921875 C 240.214844 213.667969 241.632812 215.082031 243.378906 215.082031 Z M 237.050781 146.265625 C 236.613281 146.265625 236.261719 146.621094 236.261719 147.058594 C 236.261719 147.492188 236.613281 147.847656 237.050781 147.847656 C 237.488281 147.847656 237.839844 147.496094 237.839844 147.058594 C 237.84375 146.621094 237.488281 146.265625 237.050781 146.265625 Z M 243.378906 143.101562 C 242.941406 143.101562 242.589844 143.457031 242.589844 143.894531 C 242.589844 144.332031 242.941406 144.683594 243.378906 144.683594 C 243.816406 144.683594 244.171875 144.332031 244.171875 143.894531 C 244.171875 143.457031 243.816406 143.101562 243.378906 143.101562 Z M 246.542969 146.265625 L 240.214844 146.265625 C 239.777344 146.265625 239.425781 146.621094 239.425781 147.058594 C 239.425781 147.492188 239.777344 147.847656 240.214844 147.847656 L 246.542969 147.847656 C 246.980469 147.847656 247.332031 147.496094 247.332031 147.058594 C 247.335938 146.621094 246.980469 146.265625 246.542969 146.265625 Z M 259.199219 150.222656 L 227.558594 150.222656 L 227.558594 207.171875 L 259.199219 207.171875 Z M 243.378906 209.546875 C 244.691406 209.546875 245.753906 210.609375 245.753906 211.921875 C 245.753906 213.230469 244.691406 214.292969 243.378906 214.292969 C 242.070312 214.292969 241.007812 213.230469 241.007812 211.921875 C 241.007812 210.609375 242.070312 209.546875 243.378906 209.546875 Z M 243.378906 209.546875 "/></g><g clip-rule="nonzero" clip-path="url(#b4f51e2214)"><path style=" stroke:none;fill-rule:nonzero;fill:#ffffff;fill-opacity:1;" d="M 212.230469 196.914062 C 212.933594 196.914062 213.601562 197.054688 214.207031 197.304688 C 214.046875 197.066406 213.882812 196.789062 213.714844 196.464844 C 212.976562 195.039062 212.101562 192.464844 212.128906 188.332031 C 212.128906 188.328125 212.128906 188.328125 212.128906 188.328125 C 212.128906 187.871094 208.699219 187.5 204.464844 187.5 C 200.234375 187.5 196.800781 187.871094 196.800781 188.328125 C 196.800781 188.328125 196.800781 188.332031 196.800781 188.335938 L 196.796875 188.335938 C 196.871094 192.4375 196.023438 194.980469 195.296875 196.398438 C 195.121094 196.738281 194.941406 197.03125 194.773438 197.28125 C 195.367188 197.046875 196.015625 196.914062 196.695312 196.914062 L 212.230469 196.914062 "/></g><g clip-rule="nonzero" clip-path="url(#7e4c62000a)"><path style=" stroke:none;fill-rule:nonzero;fill:#ffffff;fill-opacity:1;" d="M 196.695312 224.792969 C 196.023438 224.792969 195.382812 224.664062 194.796875 224.433594 C 194.941406 224.65625 195.09375 224.914062 195.246094 225.210938 C 195.984375 226.640625 196.859375 229.210938 196.832031 233.347656 C 196.832031 233.347656 196.832031 233.351562 196.832031 233.351562 C 196.832031 233.808594 200.261719 234.179688 204.496094 234.179688 C 208.730469 234.179688 212.160156 233.808594 212.160156 233.351562 C 212.160156 233.347656 212.160156 233.34375 212.160156 233.339844 L 212.167969 233.339844 C 212.089844 229.242188 212.941406 226.695312 213.667969 225.28125 C 213.839844 224.949219 214.011719 224.660156 214.175781 224.414062 C 213.578125 224.660156 212.921875 224.792969 212.230469 224.792969 L 196.695312 224.792969 "/></g><g clip-rule="nonzero" clip-path="url(#faa334984e)"><path style=" stroke:none;fill-rule:nonzero;fill:#ffffff;fill-opacity:1;" d="M 215.324219 219.800781 C 215.324219 221.410156 214.019531 222.714844 212.40625 222.714844 L 196.519531 222.714844 C 194.90625 222.714844 193.601562 221.410156 193.601562 219.800781 L 193.601562 201.90625 C 193.601562 200.296875 194.90625 198.992188 196.519531 198.992188 L 212.40625 198.992188 C 214.019531 198.992188 215.324219 200.296875 215.324219 201.90625 Z M 217.078125 202.949219 L 216.683594 202.949219 L 216.683594 201.753906 C 216.683594 199.398438 214.683594 197.480469 212.230469 197.480469 L 196.695312 197.480469 C 194.238281 197.480469 192.242188 199.398438 192.242188 201.753906 L 192.242188 219.953125 C 192.242188 222.308594 194.238281 224.226562 196.695312 224.226562 L 212.230469 224.226562 C 214.683594 224.226562 216.683594 222.308594 216.683594 219.953125 L 216.683594 209.382812 L 217.078125 209.382812 C 217.425781 209.382812 217.707031 209.097656 217.707031 208.75 L 217.707031 203.578125 C 217.707031 203.230469 217.425781 202.949219 217.078125 202.949219 "/></g><g clip-rule="nonzero" clip-path="url(#bb3a9de15a)"><path style=" stroke:none;fill-rule:nonzero;fill:#ffffff;fill-opacity:1;" d="M 283.289062 259.183594 C 283.269531 259.421875 283.1875 259.65625 283.105469 259.867188 C 282.964844 260.207031 282.777344 260.527344 282.597656 260.84375 C 282.222656 261.503906 281.742188 262.105469 281.175781 262.609375 C 280.027344 263.632812 278.691406 264.558594 277.386719 265.367188 C 276.769531 265.742188 276.070312 266.042969 275.40625 266.332031 L 271.90625 268.082031 C 270.609375 268.730469 269.042969 268.476562 268.019531 267.445312 C 267.9375 267.367188 267.855469 267.285156 267.773438 267.207031 C 267.285156 266.757812 266.796875 266.359375 266.226562 266.011719 C 264.148438 264.742188 261.804688 263.890625 259.496094 263.152344 C 257.921875 262.648438 256.324219 262.207031 254.722656 261.808594 C 252.992188 261.375 251.121094 261.203125 249.480469 260.496094 C 247.902344 259.820312 246.894531 258.457031 245.695312 257.300781 C 245.109375 256.734375 244.488281 256.199219 243.832031 255.707031 C 243.71875 255.625 243.78125 255.445312 243.917969 255.445312 C 246.5 255.441406 260.199219 255.773438 277.46875 262.75 C 277.640625 262.820312 277.816406 262.886719 277.996094 262.945312 C 278.128906 262.992188 278.316406 263.070312 278.484375 263.179688 C 278.875 263.445312 279.386719 263.460938 279.773438 263.1875 C 280.382812 262.761719 280.953125 262.273438 281.449219 261.722656 C 281.957031 261.167969 282.394531 260.542969 282.699219 259.855469 C 282.847656 259.515625 282.953125 259.15625 283.035156 258.796875 C 283.042969 258.761719 283.058594 258.722656 283.085938 258.695312 C 283.109375 258.667969 283.152344 258.652344 283.1875 258.667969 C 283.21875 258.683594 283.234375 258.722656 283.242188 258.757812 C 283.285156 258.898438 283.300781 259.039062 283.289062 259.183594 Z M 276.585938 267.023438 C 274.707031 268.347656 270.710938 270.226562 269.5 270.785156 C 269.34375 270.859375 269.152344 270.832031 269.039062 270.707031 C 268.84375 270.492188 268.933594 270.183594 269.175781 270.089844 C 270.5625 269.554688 274.453125 267.664062 276.394531 266.710938 C 276.601562 266.609375 276.769531 266.894531 276.585938 267.023438 Z M 269.210938 282.445312 C 268.992188 282.578125 268.632812 282.652344 268.371094 282.007812 C 268.019531 281.148438 267.226562 274.453125 266.726562 272.285156 C 266.660156 271.992188 266.527344 271.722656 266.355469 271.476562 C 266.214844 271.265625 266.132812 270.882812 266.953125 270.464844 C 267.023438 270.425781 267.101562 270.503906 267.058594 270.574219 C 266.910156 270.835938 266.824219 271.226562 267.609375 271.277344 C 267.703125 271.28125 267.777344 271.367188 267.769531 271.460938 C 267.695312 272.496094 267.429688 277.730469 269.324219 282.078125 C 269.382812 282.214844 269.332031 282.367188 269.210938 282.445312 Z M 242.210938 257.390625 C 241.953125 257.730469 241.644531 257.953125 241.480469 257.378906 C 241.421875 257.195312 241.414062 256.996094 241.4375 256.800781 C 241.648438 254.945312 243.300781 242.621094 250.382812 236.53125 C 250.476562 236.449219 250.597656 236.578125 250.519531 236.667969 C 248.3125 239.050781 243.789062 245.171875 242.675781 256.175781 C 242.628906 256.617188 242.472656 257.039062 242.210938 257.390625 Z M 241.003906 257.550781 C 240.203125 257.003906 235.953125 254.328125 231.808594 255.410156 C 231.734375 255.429688 231.664062 255.378906 231.664062 255.304688 C 231.664062 255.1875 231.746094 255.078125 231.863281 255.046875 C 232.757812 254.804688 236.605469 254.019531 240.980469 257.164062 C 241.082031 257.238281 241.136719 257.351562 241.136719 257.476562 C 241.136719 257.546875 241.0625 257.589844 241.003906 257.550781 Z M 231.140625 253.597656 C 231.042969 253.644531 230.941406 253.691406 230.847656 253.75 C 230.453125 253.972656 229.617188 254.398438 228.960938 254.417969 C 228.519531 254.4375 228.269531 253.925781 228.554688 253.589844 C 228.917969 253.167969 229.757812 252.671875 231.703125 252.582031 C 231.859375 252.578125 231.953125 252.757812 231.859375 252.882812 C 231.648438 253.148438 231.347656 253.503906 231.140625 253.597656 Z M 221.476562 252.363281 C 221.4375 252.539062 221.285156 252.65625 221.109375 252.652344 C 220.773438 252.648438 220.207031 252.695312 219.503906 252.957031 C 219.34375 253.015625 219.199219 252.84375 219.285156 252.695312 C 219.945312 251.589844 222.433594 248.914062 232.546875 246.410156 C 232.785156 246.351562 232.886719 246.535156 232.652344 246.597656 C 229.675781 247.386719 222.097656 249.648438 221.476562 252.363281 Z M 256.457031 231.753906 C 257.695312 230.734375 259.546875 230.992188 260.449219 232.316406 C 263.574219 236.925781 264.152344 241.03125 263.832031 244.164062 C 263.609375 246.34375 261.566406 247.859375 259.417969 247.449219 C 256.140625 246.820312 252.640625 246.257812 249.496094 245.960938 C 247.582031 245.78125 246.425781 243.742188 247.269531 242.015625 C 249.15625 238.144531 253.703125 234.023438 256.457031 231.753906 Z M 256.980469 229.996094 C 257.042969 229.945312 257.117188 229.898438 257.195312 229.84375 C 257.277344 229.792969 257.363281 229.734375 257.453125 229.671875 C 257.546875 229.609375 257.652344 229.554688 257.761719 229.496094 C 257.816406 229.464844 257.871094 229.433594 257.929688 229.402344 C 257.984375 229.371094 258.046875 229.335938 258.109375 229.3125 C 258.234375 229.253906 258.363281 229.195312 258.496094 229.132812 C 258.636719 229.078125 258.777344 229.027344 258.929688 228.972656 C 259.078125 228.914062 259.234375 228.878906 259.394531 228.828125 C 259.433594 228.820312 259.472656 228.804688 259.515625 228.796875 C 259.554688 228.785156 259.59375 228.78125 259.636719 228.769531 C 259.722656 228.753906 259.804688 228.734375 259.890625 228.71875 C 259.972656 228.695312 260.058594 228.6875 260.144531 228.671875 C 260.234375 228.660156 260.320312 228.648438 260.410156 228.632812 C 260.585938 228.609375 260.765625 228.601562 260.945312 228.589844 C 261.128906 228.585938 261.3125 228.582031 261.492188 228.585938 C 261.679688 228.59375 261.863281 228.597656 262.042969 228.617188 L 262.320312 228.648438 L 262.59375 228.691406 C 262.773438 228.714844 262.949219 228.757812 263.128906 228.792969 C 263.480469 228.871094 263.824219 228.972656 264.148438 229.085938 C 264.472656 229.195312 264.78125 229.328125 265.066406 229.457031 C 265.351562 229.589844 265.613281 229.722656 265.847656 229.863281 C 265.96875 229.929688 266.082031 229.996094 266.1875 230.0625 C 266.289062 230.128906 266.390625 230.191406 266.480469 230.253906 C 266.667969 230.375 266.820312 230.492188 266.945312 230.589844 C 267.074219 230.683594 267.167969 230.769531 267.234375 230.820312 C 267.300781 230.878906 267.332031 230.90625 267.332031 230.90625 C 267.332031 230.90625 267.292969 230.878906 267.222656 230.835938 C 267.148438 230.792969 267.042969 230.726562 266.90625 230.648438 C 266.769531 230.570312 266.605469 230.476562 266.414062 230.371094 C 266.21875 230.269531 265.996094 230.160156 265.753906 230.042969 C 265.511719 229.929688 265.246094 229.820312 264.957031 229.703125 C 264.671875 229.59375 264.367188 229.484375 264.050781 229.386719 C 263.890625 229.335938 263.726562 229.292969 263.5625 229.25 C 263.480469 229.226562 263.390625 229.210938 263.308594 229.191406 C 263.226562 229.171875 263.140625 229.148438 263.058594 229.132812 C 262.882812 229.101562 262.710938 229.0625 262.535156 229.042969 L 262.277344 229.003906 L 262.011719 228.980469 C 261.835938 228.957031 261.660156 228.953125 261.484375 228.941406 C 261.308594 228.933594 260.785156 228.949219 260.699219 228.957031 C 260.613281 228.960938 260.527344 228.960938 260.445312 228.96875 C 260.359375 228.980469 260.277344 228.988281 260.191406 229 C 260.105469 229.003906 259.304688 229.152344 259.007812 229.230469 C 258.863281 229.273438 258.71875 229.316406 258.582031 229.359375 C 258.445312 229.40625 258.316406 229.457031 258.191406 229.503906 C 258.066406 229.546875 257.953125 229.605469 257.839844 229.652344 C 257.726562 229.703125 257.617188 229.742188 257.519531 229.796875 C 257.425781 229.84375 257.335938 229.890625 257.25 229.933594 C 257.164062 229.976562 257.085938 230.015625 257.019531 230.058594 C 256.746094 230.21875 256.589844 230.304688 256.589844 230.304688 C 256.589844 230.304688 256.726562 230.191406 256.980469 229.996094 Z M 248.664062 301.324219 L 248.640625 301.34375 C 247.804688 301.992188 246.472656 302.316406 244.691406 302.316406 C 240.890625 302.316406 236.566406 300.796875 236.523438 300.777344 L 223.957031 296.207031 L 211.792969 291.054688 C 206.082031 287.996094 204.679688 284.730469 204.632812 284.617188 C 204.4375 284.09375 204.234375 283.59375 204.035156 283.109375 C 203.558594 281.933594 203.113281 280.824219 202.863281 279.605469 C 202.511719 277.90625 202.394531 276.136719 202.304688 274.460938 C 202.140625 271.320312 202.082031 267.214844 203.140625 263.339844 C 203.710938 261.246094 205.054688 259.445312 206.644531 258.632812 C 207.429688 258.234375 208.371094 258.035156 209.449219 258.035156 C 209.765625 258.035156 210.09375 258.054688 210.425781 258.089844 C 211.847656 258.238281 213.296875 258.683594 214.695312 259.113281 C 215.363281 259.316406 216.949219 259.800781 216.949219 259.800781 C 221.246094 261.125 225.691406 262.488281 230.1875 263.777344 L 234.082031 264.898438 C 246.054688 268.167969 248.757812 271.140625 248.992188 271.417969 L 249.070312 271.570312 L 249.152344 271.617188 C 253.707031 276.339844 253.484375 283.46875 253.480469 283.539062 C 253.15625 292.640625 252.5 294.988281 252.421875 295.238281 L 252.363281 295.371094 L 252.359375 295.460938 C 251.625 299.222656 248.722656 301.285156 248.691406 301.308594 Z M 285.761719 265.761719 C 285.613281 263.710938 285.175781 261.679688 284.484375 259.746094 C 284.246094 259.074219 283.972656 258.410156 283.675781 257.761719 C 283.675781 257.761719 281.9375 253.957031 276.316406 251.585938 C 274.144531 250.667969 272.71875 248.574219 272.683594 246.21875 C 272.574219 238.726562 269.734375 233.5625 269.734375 233.5625 C 265.355469 225.59375 256.714844 225.539062 252.304688 226.105469 C 250.457031 226.34375 248.695312 227.019531 247.175781 228.097656 C 239.921875 233.222656 236.027344 242.425781 234.734375 245.984375 C 229.519531 246.613281 223.582031 248.167969 219.695312 251.796875 C 218.515625 252.894531 217.105469 253.71875 215.570312 254.199219 L 214.445312 254.550781 C 214.265625 254.609375 214.300781 254.878906 214.492188 254.882812 C 216.46875 254.984375 218.390625 255.503906 220.269531 256.09375 C 222.125 256.675781 223.976562 257.257812 225.84375 257.804688 C 228.828125 258.679688 231.8125 259.554688 234.796875 260.429688 C 236.222656 260.847656 237.648438 261.273438 239.078125 261.683594 L 245.683594 263.585938 C 245.683594 263.585938 254.902344 266.074219 257.875 271.605469 C 258.027344 271.878906 258.179688 272.148438 258.34375 272.410156 C 259.039062 273.511719 260.996094 277.273438 260.519531 284.089844 C 260.507812 284.265625 260.5 284.4375 260.496094 284.613281 C 260.445312 286.128906 260.070312 294.609375 257.53125 297.476562 C 257.46875 297.542969 257.40625 297.613281 257.347656 297.683594 C 256.988281 298.121094 255.328125 300.019531 253.019531 300.914062 C 252.875 300.976562 252.757812 300.777344 252.882812 300.679688 C 253.828125 299.917969 254.652344 299.003906 255.304688 297.976562 C 256.820312 295.582031 257.375 292.710938 257.664062 289.894531 C 258 286.675781 258.027344 283.429688 257.753906 280.210938 C 257.519531 277.476562 256.9375 274.75 255.585938 272.328125 C 254.339844 270.089844 252.386719 268.308594 250.257812 266.914062 C 249.875 266.664062 249.480469 266.425781 249.085938 266.199219 C 245.992188 264.445312 242.484375 263.550781 239.085938 262.574219 C 236.535156 261.839844 233.984375 261.101562 231.445312 260.332031 C 227.835938 259.242188 224.226562 258.152344 220.617188 257.0625 C 217.292969 256.054688 213.820312 255.039062 210.390625 255.621094 C 210.324219 255.628906 210.261719 255.667969 210.226562 255.722656 C 210.128906 255.898438 210.402344 256.0625 210.613281 256.089844 C 212.011719 256.273438 213.402344 256.5 214.785156 256.761719 C 218.285156 257.429688 221.742188 258.347656 225.113281 259.503906 C 227.953125 260.464844 230.730469 261.574219 233.582031 262.492188 C 237.007812 263.597656 240.511719 264.480469 243.847656 265.855469 C 246.105469 266.785156 248.324219 267.871094 250.179688 269.480469 C 252.609375 271.59375 254.28125 274.417969 255.125 277.515625 C 256.082031 281.035156 256.089844 284.738281 255.886719 288.378906 C 255.753906 290.742188 255.53125 293.128906 254.804688 295.382812 C 254.191406 297.277344 253.316406 297.652344 253.691406 295.722656 C 253.691406 295.722656 254.476562 293.730469 254.839844 283.59375 C 254.839844 283.59375 255.140625 275.867188 250.132812 270.675781 C 250.132812 270.675781 248.019531 267.296875 234.441406 263.585938 C 233.148438 263.214844 231.855469 262.847656 230.5625 262.472656 C 226.144531 261.203125 221.746094 259.855469 217.347656 258.503906 C 216.597656 258.277344 215.84375 258.042969 215.09375 257.816406 C 213.609375 257.359375 212.113281 256.902344 210.570312 256.738281 C 209.027344 256.578125 207.414062 256.722656 206.03125 257.425781 C 203.914062 258.5 202.441406 260.742188 201.828125 262.984375 C 200.804688 266.730469 200.746094 270.683594 200.953125 274.535156 C 201.046875 276.332031 201.171875 278.117188 201.53125 279.882812 C 201.917969 281.757812 202.707031 283.335938 203.359375 285.101562 C 203.359375 285.101562 204.75 288.84375 211.207031 292.28125 L 223.457031 297.46875 L 236.070312 302.058594 C 236.070312 302.058594 244.601562 305.101562 248.824219 302.832031 C 248.964844 302.757812 249.113281 302.699219 249.261719 302.648438 C 249.902344 302.4375 250.484375 302.113281 251.105469 301.871094 C 251.890625 301.566406 252.707031 301.46875 253.511719 301.242188 C 254.230469 301.035156 254.933594 300.746094 255.613281 300.425781 C 257.757812 299.480469 260.007812 298.648438 262.082031 297.566406 C 263.34375 296.910156 264.515625 296.089844 265.570312 295.132812 C 268.660156 292.324219 270.859375 288.359375 271.359375 284.199219 C 271.390625 283.921875 271.425781 283.640625 271.453125 283.359375 C 271.53125 282.617188 272.015625 281.980469 272.707031 281.707031 C 273.863281 281.253906 275.003906 280.753906 276.121094 280.210938 C 277.578125 279.5 279 278.710938 280.347656 277.800781 C 281.660156 276.910156 282.929688 275.890625 283.921875 274.636719 C 284.960938 273.320312 285.417969 271.738281 285.640625 270.101562 C 285.835938 268.664062 285.867188 267.203125 285.761719 265.761719 "/></g></g></svg>